<svg width="192" height="44" viewBox="0 0 192 44" fill="none" xmlns="http://www.w3.org/2000/svg">
<circle cx="17.1875" cy="32.3125" r="11.6875" fill="#FF8C00"/>
<path d="M23.2293 6.10849C24.3819 5.89086 25.573 6.01386 26.6568 6.46242C27.7407 6.91099 28.6703 7.66568 29.332 8.63421L38.1277 21.5073C38.24 21.6717 38.3099 21.8613 38.3312 22.0592C38.3525 22.2572 38.3245 22.4573 38.2497 22.6417C38.1749 22.8262 38.0556 22.9893 37.9025 23.1166C37.7494 23.2438 37.5672 23.3312 37.3722 23.3709L22.0162 26.5253C20.8348 26.7681 19.6078 26.6514 18.4934 26.1901C17.379 25.7289 16.4284 24.9444 15.7641 23.9377L8.37787 12.7531L5.46351 19.7948C5.34109 20.0906 5.10619 20.3256 4.81048 20.4482C4.51476 20.5708 4.18246 20.5709 3.88668 20.4485C3.5909 20.3261 3.35586 20.0912 3.23327 19.7954C3.11068 19.4997 3.11058 19.1674 3.233 18.8717L6.92557 9.9496L6.97619 9.83992C7.04004 9.62851 7.16067 9.43867 7.32494 9.29107C7.48922 9.14347 7.69084 9.04377 7.90785 9.00283L23.2293 6.10849ZM6.7718 22.9462L8.8701 17.8763L13.7475 25.2689C14.6775 26.6781 16.0083 27.7764 17.5684 28.4221C19.1284 29.0678 20.8462 29.2312 22.5 28.8914L31.1752 27.1077L29.076 32.1799C28.9665 32.4447 28.7664 32.6619 28.5115 32.7927L28.5074 32.7963L28.5011 32.7989L28.4812 32.8089L28.4163 32.8396L28.1963 32.9418C27.9338 33.0574 27.6679 33.1652 27.399 33.265C26.7209 33.5147 25.753 33.8143 24.5768 34.0303C22.2307 34.4596 19.0095 34.5477 15.6169 33.1436C12.2198 31.7377 10.0052 29.3999 8.64649 27.4372C8.08882 26.6355 7.60168 25.7871 7.19056 24.9013C7.03538 24.5679 6.89553 24.2276 6.77143 23.8814L6.74713 23.8138L6.74021 23.7927L6.73759 23.7864L7.88521 23.4123C6.73721 23.781 6.73852 23.7841 6.73852 23.7841C6.64937 23.5106 6.66084 23.2143 6.77088 22.9484" fill="white"/>
<path d="M51.9002 20.7775C53.257 20.7775 54.4518 21.0002 55.4845 21.4458C56.5375 21.8913 57.3475 22.5089 57.9146 23.2986C58.4816 24.0884 58.7651 24.9895 58.7651 26.0021C58.7651 27.0551 58.4613 28.0068 57.8538 28.8573C57.2463 29.7079 56.4059 30.3862 55.3326 30.8925C54.2594 31.3785 53.0646 31.6215 51.7484 31.6215C51.1813 31.6215 50.5333 31.5911 49.8043 31.5304C49.5208 31.5101 49.1664 31.4899 48.7412 31.4696C48.3362 31.4494 47.8806 31.4392 47.3743 31.4392L45.1569 31.4696C44.7519 31.4899 44.2051 31.5 43.5166 31.5C43.4559 31.5 43.4255 31.4392 43.4255 31.3177C43.4255 31.1962 43.4559 31.1355 43.5166 31.1355C44.1039 31.1355 44.5494 31.0849 44.8531 30.9836C45.1569 30.8621 45.3695 30.6596 45.491 30.3761C45.6328 30.0724 45.7037 29.6269 45.7037 29.0396V14.9758C45.7037 14.1253 45.5619 13.5684 45.2784 13.3052C44.9949 13.0216 44.4178 12.8799 43.547 12.8799C43.5065 12.8799 43.4863 12.8191 43.4863 12.6976C43.4863 12.5761 43.5065 12.5154 43.547 12.5154L45.1569 12.5458C46.0884 12.5863 46.8275 12.6065 47.3743 12.6065C47.9413 12.6065 48.5286 12.5761 49.1361 12.5154C49.3386 12.4951 49.6423 12.4749 50.0473 12.4546C50.4523 12.4344 50.8067 12.4243 51.1105 12.4243C52.9532 12.4243 54.3809 12.7584 55.3934 13.4267C56.4059 14.0949 56.9122 15.0669 56.9122 16.3427C56.9122 17.5172 56.4464 18.5601 55.5149 19.4714C54.6036 20.3624 53.2874 20.98 51.5661 21.3243L51.9002 20.7775ZM50.6548 13.0925C50.0676 13.0925 49.6626 13.2343 49.4398 13.5178C49.2171 13.781 49.1057 14.2873 49.1057 15.0365V20.9901L47.9818 20.7775C48.8728 20.818 49.6525 20.8382 50.3207 20.8382C51.3737 20.8382 52.1837 20.4434 52.7507 19.6536C53.3178 18.8638 53.6013 17.8513 53.6013 16.6161C53.6013 15.4618 53.3481 14.591 52.8419 14.0038C52.3356 13.3963 51.6066 13.0925 50.6548 13.0925ZM51.232 30.8621C53.8848 30.8621 55.2111 29.4851 55.2111 26.7311C55.2111 25.1718 54.8365 23.9365 54.0873 23.0253C53.338 22.114 52.204 21.6584 50.6852 21.6584C49.693 21.6584 48.8323 21.7191 48.1033 21.8406L49.1057 21.4761V29.0396C49.1057 29.7079 49.2373 30.1837 49.5006 30.4672C49.7638 30.7305 50.341 30.8621 51.232 30.8621ZM64.9837 22.8734C66.0975 21.5976 66.9885 20.7167 67.6567 20.2307C68.3453 19.7245 68.9325 19.4714 69.4185 19.4714C69.8843 19.4714 70.3298 19.6435 70.755 19.9877C71.2005 20.3117 71.4233 20.7066 71.4233 21.1724C71.4233 21.5976 71.2917 21.952 71.0284 22.2355C70.7652 22.4988 70.4209 22.6304 69.9956 22.6304C69.6919 22.6304 69.4388 22.5696 69.2363 22.4481C69.054 22.3266 68.8616 22.1444 68.6591 21.9014C68.4769 21.6989 68.3149 21.5571 68.1731 21.4761C68.0516 21.3749 67.8997 21.3243 67.7175 21.3243C67.4947 21.3243 67.2112 21.4458 66.867 21.6888C66.543 21.9318 65.9962 22.4583 65.2267 23.2683L64.9837 22.8734ZM61.5209 31.5C61.4602 31.5 61.4298 31.4392 61.4298 31.3177C61.4298 31.1962 61.4602 31.1355 61.5209 31.1355C62.1487 31.1355 62.5739 30.9937 62.7967 30.7102C63.0194 30.4065 63.1308 29.8496 63.1308 29.0396V23.329C63.1308 22.7013 63.0498 22.2456 62.8878 21.9621C62.7461 21.6584 62.5132 21.5065 62.1892 21.5065C61.8449 21.5065 61.3589 21.6483 60.7312 21.9318H60.6704C60.6097 21.9318 60.559 21.8811 60.5185 21.7799C60.4983 21.6786 60.5084 21.6179 60.5489 21.5976L64.7711 19.5321C64.8926 19.4916 64.9635 19.4714 64.9837 19.4714C65.2267 19.4714 65.4495 19.7346 65.652 20.2611C65.8747 20.7674 65.9861 21.4458 65.9861 22.2963V29.0396C65.9861 29.8496 66.1785 30.4065 66.5632 30.7102C66.948 30.9937 67.6567 31.1355 68.6895 31.1355C68.7705 31.1355 68.811 31.1962 68.811 31.3177C68.811 31.4392 68.7705 31.5 68.6895 31.5C67.9807 31.5 67.4239 31.4899 67.0189 31.4696L64.5585 31.4392L62.7663 31.4696C62.4626 31.4899 62.0474 31.5 61.5209 31.5ZM81.1795 31.6823C81.0985 31.7228 80.9972 31.743 80.8757 31.743C80.4707 31.743 80.0961 31.4899 79.7518 30.9836C79.4076 30.4571 79.2355 29.7686 79.2355 28.9181V23.7543C79.2355 22.4583 79.1241 21.5166 78.9013 20.9294C78.6988 20.3421 78.3444 20.0485 77.8382 20.0485C76.7649 20.0485 76.1574 20.8787 76.0157 22.5393C75.9549 23.1468 75.7727 23.5822 75.4689 23.8454C75.1854 24.1087 74.7804 24.2403 74.2539 24.2403C73.7476 24.2403 73.373 24.139 73.13 23.9365C72.9073 23.7138 72.7959 23.4303 72.7959 23.086C72.7959 22.4785 73.1503 21.9014 73.859 21.3546C74.5678 20.7876 75.4183 20.332 76.4105 19.9877C77.4231 19.6435 78.3141 19.4714 79.0836 19.4714C79.9746 19.4714 80.6935 19.7549 81.2402 20.3219C81.8072 20.8686 82.0907 21.709 82.0907 22.843V28.2195C82.0907 28.8067 82.192 29.2623 82.3945 29.5864C82.6172 29.9104 82.921 30.0724 83.3058 30.0724C83.5893 30.0724 83.8829 30.0015 84.1866 29.8597H84.217C84.298 29.8597 84.3486 29.9104 84.3689 30.0116C84.4094 30.0926 84.3891 30.1534 84.3081 30.1939L81.1795 31.6823ZM75.3474 31.7126C74.4766 31.7126 73.8185 31.5203 73.373 31.1355C72.9275 30.7507 72.7047 30.2141 72.7047 29.5256C72.7047 28.9788 72.8364 28.5435 73.0996 28.2195C73.3629 27.8752 73.6869 27.612 74.0716 27.4297C74.4766 27.2272 75.0335 27.0044 75.7423 26.7614L76.5017 26.4881L79.5392 25.3642L79.6607 25.8198L77.9293 26.6096C77.8686 26.6298 77.6661 26.7108 77.3218 26.8526C76.9776 26.9741 76.6738 27.1867 76.4105 27.4905C76.1675 27.7942 76.046 28.1486 76.046 28.5536C76.046 29.0396 76.1979 29.4243 76.5017 29.7079C76.8257 29.9711 77.1902 30.1027 77.5952 30.1027C77.9192 30.1027 78.2533 29.9914 78.5976 29.7686L80.1163 28.7358L80.1467 29.2218L78.0204 30.7406C77.5547 31.0849 77.1193 31.338 76.7143 31.5C76.3093 31.6418 75.8537 31.7126 75.3474 31.7126ZM85.4593 31.5C85.3986 31.5 85.3682 31.4392 85.3682 31.3177C85.3682 31.1962 85.3986 31.1355 85.4593 31.1355C86.0871 31.1355 86.5123 30.9937 86.7351 30.7102C86.9578 30.4065 87.0692 29.8496 87.0692 29.0396V23.6024C87.0692 22.9139 86.9983 22.4178 86.8566 22.114C86.7148 21.8103 86.482 21.6584 86.158 21.6584C85.8947 21.6584 85.5201 21.7698 85.0341 21.9925H85.0037C84.9227 21.9925 84.8619 21.9419 84.8214 21.8406C84.7809 21.7191 84.7911 21.6483 84.8518 21.628L89.4385 19.5017L89.5296 19.4714C89.6309 19.4714 89.7321 19.522 89.8334 19.6232C89.9346 19.7245 89.9853 19.8156 89.9853 19.8966V20.5649C89.9448 21.3749 89.9245 22.3671 89.9245 23.5417V29.0396C89.9245 29.8496 90.0359 30.4065 90.2586 30.7102C90.5016 30.9937 90.937 31.1355 91.5648 31.1355C91.6255 31.1355 91.6559 31.1962 91.6559 31.3177C91.6559 31.4392 91.6255 31.5 91.5648 31.5C91.0383 31.5 90.6231 31.4899 90.3194 31.4696L88.4969 31.4392L86.7047 31.4696C86.401 31.4899 85.9858 31.5 85.4593 31.5ZM88.3754 16.4642C87.7881 16.4642 87.3325 16.3022 87.0085 15.9782C86.6845 15.6542 86.5225 15.1986 86.5225 14.6113C86.5225 14.0848 86.6845 13.6697 87.0085 13.3659C87.3527 13.0419 87.8083 12.8799 88.3754 12.8799C88.9424 12.8799 89.3777 13.0318 89.6815 13.3355C89.9853 13.6393 90.1371 14.0645 90.1371 14.6113C90.1371 15.1986 89.9853 15.6542 89.6815 15.9782C89.3777 16.3022 88.9424 16.4642 88.3754 16.4642ZM101.61 31.5C101.549 31.5 101.519 31.4392 101.519 31.3177C101.519 31.1962 101.549 31.1355 101.61 31.1355C102.238 31.1355 102.663 30.9937 102.886 30.7102C103.108 30.4065 103.22 29.8496 103.22 29.0396V24.6655C103.22 23.572 103.017 22.762 102.612 22.2355C102.227 21.709 101.61 21.4458 100.759 21.4458C100.131 21.4458 99.4936 21.6078 98.8456 21.9318C98.2178 22.2355 97.7217 22.6405 97.3572 23.1468L97.2053 22.7823C97.9343 21.7293 98.7444 20.9091 99.6354 20.3219C100.547 19.7144 101.509 19.4106 102.521 19.4106C103.615 19.4106 104.475 19.765 105.103 20.4737C105.751 21.1622 106.075 22.0735 106.075 23.2075V29.0396C106.075 29.8496 106.186 30.4065 106.409 30.7102C106.652 30.9937 107.087 31.1355 107.715 31.1355C107.776 31.1355 107.806 31.1962 107.806 31.3177C107.806 31.4392 107.776 31.5 107.715 31.5C107.189 31.5 106.774 31.4899 106.47 31.4696L104.647 31.4392L102.886 31.4696C102.562 31.4899 102.136 31.5 101.61 31.5ZM93.4388 31.5C93.378 31.5 93.3477 31.4392 93.3477 31.3177C93.3477 31.1962 93.378 31.1355 93.4388 31.1355C94.0665 31.1355 94.4918 30.9937 94.7146 30.7102C94.9373 30.4065 95.0487 29.8496 95.0487 29.0396V23.329C95.0487 22.7013 94.9677 22.2456 94.8057 21.9621C94.6639 21.6584 94.431 21.5065 94.107 21.5065C93.7628 21.5065 93.2768 21.6483 92.649 21.9318H92.5883C92.5275 21.9318 92.4769 21.8811 92.4364 21.7799C92.4161 21.6786 92.4263 21.6179 92.4668 21.5976L96.689 19.5321C96.8105 19.4916 96.8813 19.4714 96.9016 19.4714C97.1446 19.4714 97.3673 19.7346 97.5698 20.2611C97.7926 20.7674 97.904 21.4458 97.904 22.2963V29.0396C97.904 29.8496 98.0153 30.4065 98.2381 30.7102C98.4811 30.9937 98.9165 31.1355 99.5442 31.1355C99.605 31.1355 99.6354 31.1962 99.6354 31.3177C99.6354 31.4392 99.605 31.5 99.5442 31.5C99.0177 31.5 98.6026 31.4899 98.2988 31.4696L96.4763 31.4392L94.6842 31.4696C94.3804 31.4899 93.9653 31.5 93.4388 31.5ZM117.872 20.7775C119.229 20.7775 120.423 21.0002 121.456 21.4458C122.509 21.8913 123.319 22.5089 123.886 23.2986C124.453 24.0884 124.737 24.9895 124.737 26.0021C124.737 27.0551 124.433 28.0068 123.825 28.8573C123.218 29.7079 122.377 30.3862 121.304 30.8925C120.231 31.3785 119.036 31.6215 117.72 31.6215C117.153 31.6215 116.505 31.5911 115.776 31.5304C115.492 31.5101 115.138 31.4899 114.713 31.4696C114.308 31.4494 113.852 31.4392 113.346 31.4392L111.128 31.4696C110.723 31.4899 110.177 31.5 109.488 31.5C109.427 31.5 109.397 31.4392 109.397 31.3177C109.397 31.1962 109.427 31.1355 109.488 31.1355C110.075 31.1355 110.521 31.0849 110.825 30.9836C111.128 30.8621 111.341 30.6596 111.463 30.3761C111.604 30.0724 111.675 29.6269 111.675 29.0396V14.9758C111.675 14.1253 111.533 13.5684 111.25 13.3052C110.966 13.0216 110.389 12.8799 109.519 12.8799C109.478 12.8799 109.458 12.8191 109.458 12.6976C109.458 12.5761 109.478 12.5154 109.519 12.5154L111.128 12.5458C112.06 12.5863 112.799 12.6065 113.346 12.6065C113.913 12.6065 114.5 12.5761 115.108 12.5154C115.31 12.4951 115.614 12.4749 116.019 12.4546C116.424 12.4344 116.778 12.4243 117.082 12.4243C118.925 12.4243 120.352 12.7584 121.365 13.4267C122.377 14.0949 122.884 15.0669 122.884 16.3427C122.884 17.5172 122.418 18.5601 121.486 19.4714C120.575 20.3624 119.259 20.98 117.538 21.3243L117.872 20.7775ZM116.626 13.0925C116.039 13.0925 115.634 13.2343 115.411 13.5178C115.189 13.781 115.077 14.2873 115.077 15.0365V20.9901L113.953 20.7775C114.844 20.818 115.624 20.8382 116.292 20.8382C117.345 20.8382 118.155 20.4434 118.722 19.6536C119.289 18.8638 119.573 17.8513 119.573 16.6161C119.573 15.4618 119.32 14.591 118.813 14.0038C118.307 13.3963 117.578 13.0925 116.626 13.0925ZM117.203 30.8621C119.856 30.8621 121.183 29.4851 121.183 26.7311C121.183 25.1718 120.808 23.9365 120.059 23.0253C119.31 22.114 118.175 21.6584 116.657 21.6584C115.664 21.6584 114.804 21.7191 114.075 21.8406L115.077 21.4761V29.0396C115.077 29.7079 115.209 30.1837 115.472 30.4672C115.735 30.7305 116.312 30.8621 117.203 30.8621ZM132.14 31.8645C131.026 31.8645 130.145 31.5203 129.497 30.8317C128.869 30.123 128.556 29.2016 128.556 28.0676V23.6024C128.556 22.2861 128.242 21.628 127.614 21.628C127.391 21.628 127.138 21.6989 126.855 21.8406H126.824C126.743 21.8406 126.682 21.79 126.642 21.6888C126.601 21.5673 126.612 21.4964 126.672 21.4761L130.743 19.5321L130.894 19.5017C130.996 19.5017 131.097 19.5524 131.198 19.6536C131.32 19.7346 131.38 19.8156 131.38 19.8966V26.6096C131.38 28.7966 132.221 29.8901 133.902 29.8901C134.469 29.8901 135.046 29.7281 135.633 29.4041C136.241 29.0801 136.716 28.6548 137.061 28.1283L137.243 28.4928C136.514 29.5459 135.724 30.3761 134.874 30.9836C134.023 31.5709 133.112 31.8645 132.14 31.8645ZM139.308 27.9765C139.308 28.665 139.369 29.151 139.491 29.4345C139.632 29.718 139.855 29.8597 140.159 29.8597C140.442 29.8597 140.858 29.7484 141.404 29.5256H141.465C141.526 29.5256 141.576 29.5762 141.617 29.6775C141.678 29.7787 141.678 29.8395 141.617 29.8597L137.425 31.8949C137.385 31.9151 137.334 31.9253 137.273 31.9253C137.051 31.9253 136.858 31.662 136.696 31.1355C136.554 30.609 136.484 29.9002 136.484 29.0092V23.6024C136.484 22.2861 136.17 21.628 135.542 21.628C135.319 21.628 135.056 21.6989 134.752 21.8406H134.722C134.661 21.8406 134.61 21.79 134.57 21.6888C134.529 21.5673 134.54 21.4964 134.6 21.4761L138.671 19.5321C138.711 19.5119 138.762 19.5017 138.822 19.5017C138.924 19.5017 139.025 19.5524 139.126 19.6536C139.248 19.7346 139.308 19.8156 139.308 19.8966V27.9765ZM149.42 20.4434C149.501 20.3016 149.45 20.2307 149.268 20.2307C147.607 20.2307 146.23 20.5041 145.137 21.0509C144.043 21.5774 143.314 22.3773 142.95 23.4505C142.95 23.4708 142.909 23.4809 142.828 23.4809C142.666 23.4809 142.596 23.4404 142.616 23.3594L143.892 18.5905C143.892 18.5702 143.932 18.5601 144.013 18.5601C144.175 18.5601 144.246 18.6006 144.226 18.6816C144.185 18.8436 144.165 18.9651 144.165 19.0461C144.165 19.3296 144.286 19.522 144.529 19.6232C144.772 19.7245 145.177 19.7751 145.744 19.7751H152.731C152.812 19.7751 152.883 19.8156 152.943 19.8966C153.004 19.9776 153.014 20.0586 152.974 20.1396L146.048 30.7406C145.987 30.8824 146.038 30.9532 146.2 30.9532C148.185 30.9532 149.714 30.6697 150.787 30.1027C151.86 29.5357 152.528 28.665 152.792 27.4905C152.812 27.4297 152.873 27.3993 152.974 27.3993C153.095 27.3993 153.156 27.4297 153.156 27.4905L153.095 31.1659C153.095 31.2469 153.065 31.3279 153.004 31.4089C152.943 31.4696 152.873 31.5 152.792 31.5H142.859C142.778 31.5 142.707 31.4595 142.646 31.3785C142.606 31.2975 142.606 31.2165 142.646 31.1355L149.42 20.4434ZM161.73 20.4434C161.811 20.3016 161.761 20.2307 161.578 20.2307C159.918 20.2307 158.541 20.5041 157.447 21.0509C156.354 21.5774 155.625 22.3773 155.26 23.4505C155.26 23.4708 155.22 23.4809 155.139 23.4809C154.977 23.4809 154.906 23.4404 154.926 23.3594L156.202 18.5905C156.202 18.5702 156.242 18.5601 156.323 18.5601C156.485 18.5601 156.556 18.6006 156.536 18.6816C156.496 18.8436 156.475 18.9651 156.475 19.0461C156.475 19.3296 156.597 19.522 156.84 19.6232C157.083 19.7245 157.488 19.7751 158.055 19.7751H165.041C165.122 19.7751 165.193 19.8156 165.254 19.8966C165.315 19.9776 165.325 20.0586 165.284 20.1396L158.359 30.7406C158.298 30.8824 158.348 30.9532 158.51 30.9532C160.495 30.9532 162.024 30.6697 163.097 30.1027C164.17 29.5357 164.839 28.665 165.102 27.4905C165.122 27.4297 165.183 27.3993 165.284 27.3993C165.406 27.3993 165.466 27.4297 165.466 27.4905L165.406 31.1659C165.406 31.2469 165.375 31.3279 165.315 31.4089C165.254 31.4696 165.183 31.5 165.102 31.5H155.169C155.088 31.5 155.017 31.4595 154.957 31.3785C154.916 31.2975 154.916 31.2165 154.957 31.1355L161.73 20.4434ZM173.403 31.8645C172.127 31.8645 171.023 31.6013 170.092 31.0747C169.16 30.528 168.451 29.8091 167.965 28.9181C167.479 28.0068 167.236 27.0247 167.236 25.9717C167.236 24.7972 167.53 23.7138 168.117 22.7215C168.705 21.7293 169.515 20.9496 170.547 20.3826C171.6 19.7954 172.785 19.5017 174.101 19.5017C175.357 19.5017 176.329 19.7852 177.017 20.3522C177.706 20.9192 178.05 21.8001 178.05 22.9949C178.05 23.6227 177.939 23.9365 177.716 23.9365H174.8C174.84 22.7013 174.719 21.7596 174.435 21.1116C174.152 20.4434 173.656 20.1092 172.947 20.1092C172.137 20.1092 171.489 20.5244 171.003 21.3546C170.537 22.1849 170.304 23.2885 170.304 24.6655C170.304 26.4476 170.709 27.8448 171.519 28.8573C172.35 29.8699 173.534 30.3761 175.073 30.3761C175.62 30.3761 176.086 30.3154 176.471 30.1939C176.855 30.0521 177.362 29.8294 177.989 29.5256L178.05 29.4952C178.091 29.4952 178.131 29.5357 178.172 29.6167C178.232 29.6977 178.242 29.7585 178.202 29.799C177.453 30.528 176.693 31.0545 175.924 31.3785C175.154 31.7025 174.314 31.8645 173.403 31.8645ZM169.211 23.3898L175.863 23.2683V23.9365L169.241 23.9669L169.211 23.3898ZM183.608 22.8734C184.722 21.5976 185.613 20.7167 186.281 20.2307C186.969 19.7245 187.557 19.4714 188.043 19.4714C188.508 19.4714 188.954 19.6435 189.379 19.9877C189.825 20.3117 190.047 20.7066 190.047 21.1724C190.047 21.5976 189.916 21.952 189.653 22.2355C189.389 22.4988 189.045 22.6304 188.62 22.6304C188.316 22.6304 188.063 22.5696 187.86 22.4481C187.678 22.3266 187.486 22.1444 187.283 21.9014C187.101 21.6989 186.939 21.5571 186.797 21.4761C186.676 21.3749 186.524 21.3243 186.342 21.3243C186.119 21.3243 185.835 21.4458 185.491 21.6888C185.167 21.9318 184.62 22.4583 183.851 23.2683L183.608 22.8734ZM180.145 31.5C180.084 31.5 180.054 31.4392 180.054 31.3177C180.054 31.1962 180.084 31.1355 180.145 31.1355C180.773 31.1355 181.198 30.9937 181.421 30.7102C181.644 30.4065 181.755 29.8496 181.755 29.0396V23.329C181.755 22.7013 181.674 22.2456 181.512 21.9621C181.37 21.6584 181.137 21.5065 180.813 21.5065C180.469 21.5065 179.983 21.6483 179.355 21.9318H179.295C179.234 21.9318 179.183 21.8811 179.143 21.7799C179.122 21.6786 179.133 21.6179 179.173 21.5976L183.395 19.5321C183.517 19.4916 183.588 19.4714 183.608 19.4714C183.851 19.4714 184.074 19.7346 184.276 20.2611C184.499 20.7674 184.61 21.4458 184.61 22.2963V29.0396C184.61 29.8496 184.803 30.4065 185.187 30.7102C185.572 30.9937 186.281 31.1355 187.314 31.1355C187.395 31.1355 187.435 31.1962 187.435 31.3177C187.435 31.4392 187.395 31.5 187.314 31.5C186.605 31.5 186.048 31.4899 185.643 31.4696L183.183 31.4392L181.39 31.4696C181.087 31.4899 180.672 31.5 180.145 31.5Z" fill="white"/>
</svg>
