<svg width="192" height="44" viewBox="0 0 192 44" fill="none" xmlns="http://www.w3.org/2000/svg">
<circle cx="17.1875" cy="32.3125" r="11.6875" fill="#FF8C00"/>
<path d="M23.2293 6.10849C24.3819 5.89086 25.573 6.01386 26.6568 6.46242C27.7407 6.91099 28.6703 7.66568 29.332 8.63421L38.1277 21.5073C38.24 21.6717 38.3099 21.8613 38.3312 22.0592C38.3525 22.2572 38.3245 22.4573 38.2497 22.6417C38.1749 22.8262 38.0556 22.9893 37.9025 23.1166C37.7494 23.2438 37.5672 23.3312 37.3722 23.3709L22.0162 26.5253C20.8348 26.7681 19.6078 26.6514 18.4934 26.1901C17.379 25.7289 16.4284 24.9444 15.7641 23.9377L8.37787 12.7531L5.46351 19.7948C5.34109 20.0906 5.10619 20.3256 4.81048 20.4482C4.51476 20.5708 4.18246 20.5709 3.88668 20.4485C3.5909 20.3261 3.35586 20.0912 3.23327 19.7954C3.11068 19.4997 3.11058 19.1674 3.233 18.8717L6.92557 9.9496L6.97619 9.83992C7.04004 9.62851 7.16067 9.43867 7.32494 9.29107C7.48922 9.14347 7.69084 9.04377 7.90785 9.00283L23.2293 6.10849ZM6.7718 22.9462L8.8701 17.8763L13.7475 25.2689C14.6775 26.6781 16.0083 27.7764 17.5684 28.4221C19.1284 29.0678 20.8462 29.2312 22.5 28.8914L31.1752 27.1077L29.076 32.1799C28.9665 32.4447 28.7664 32.6619 28.5115 32.7927L28.5074 32.7963L28.5011 32.7989L28.4812 32.8089L28.4163 32.8396L28.1963 32.9418C27.9338 33.0574 27.6679 33.1652 27.399 33.265C26.7209 33.5147 25.753 33.8143 24.5768 34.0303C22.2307 34.4596 19.0095 34.5477 15.6169 33.1436C12.2198 31.7377 10.0052 29.3999 8.64649 27.4372C8.08882 26.6355 7.60168 25.7871 7.19056 24.9013C7.03538 24.5679 6.89553 24.2276 6.77143 23.8814L6.74713 23.8138L6.74021 23.7927L6.73759 23.7864L7.88521 23.4123C6.73721 23.781 6.73852 23.7841 6.73852 23.7841C6.64937 23.5106 6.66084 23.2143 6.77088 22.9484" fill="#0000FF"/>
<path d="M51.9002 24.2775C53.257 24.2775 54.4518 24.5002 55.4845 24.9458C56.5375 25.3913 57.3475 26.0089 57.9146 26.7986C58.4816 27.5884 58.7651 28.4895 58.7651 29.5021C58.7651 30.5551 58.4613 31.5068 57.8538 32.3573C57.2463 33.2079 56.4059 33.8862 55.3326 34.3925C54.2594 34.8785 53.0646 35.1215 51.7484 35.1215C51.1813 35.1215 50.5333 35.0911 49.8043 35.0304C49.5208 35.0101 49.1664 34.9899 48.7412 34.9696C48.3362 34.9494 47.8806 34.9392 47.3743 34.9392L45.1569 34.9696C44.7519 34.9899 44.2051 35 43.5166 35C43.4559 35 43.4255 34.9392 43.4255 34.8177C43.4255 34.6962 43.4559 34.6355 43.5166 34.6355C44.1039 34.6355 44.5494 34.5849 44.8531 34.4836C45.1569 34.3621 45.3695 34.1596 45.491 33.8761C45.6328 33.5724 45.7037 33.1269 45.7037 32.5396V18.4758C45.7037 17.6253 45.5619 17.0684 45.2784 16.8052C44.9949 16.5216 44.4178 16.3799 43.547 16.3799C43.5065 16.3799 43.4863 16.3191 43.4863 16.1976C43.4863 16.0761 43.5065 16.0154 43.547 16.0154L45.1569 16.0458C46.0884 16.0863 46.8275 16.1065 47.3743 16.1065C47.9413 16.1065 48.5286 16.0761 49.1361 16.0154C49.3386 15.9951 49.6423 15.9749 50.0473 15.9546C50.4523 15.9344 50.8067 15.9243 51.1105 15.9243C52.9532 15.9243 54.3809 16.2584 55.3934 16.9267C56.4059 17.5949 56.9122 18.5669 56.9122 19.8427C56.9122 21.0172 56.4464 22.0601 55.5149 22.9714C54.6036 23.8624 53.2874 24.48 51.5661 24.8243L51.9002 24.2775ZM50.6548 16.5925C50.0676 16.5925 49.6626 16.7343 49.4398 17.0178C49.2171 17.281 49.1057 17.7873 49.1057 18.5365V24.4901L47.9818 24.2775C48.8728 24.318 49.6525 24.3382 50.3207 24.3382C51.3737 24.3382 52.1837 23.9434 52.7507 23.1536C53.3178 22.3638 53.6013 21.3513 53.6013 20.1161C53.6013 18.9618 53.3481 18.091 52.8419 17.5038C52.3356 16.8963 51.6066 16.5925 50.6548 16.5925ZM51.232 34.3621C53.8848 34.3621 55.2111 32.9851 55.2111 30.2311C55.2111 28.6718 54.8365 27.4365 54.0873 26.5253C53.338 25.614 52.204 25.1584 50.6852 25.1584C49.693 25.1584 48.8323 25.2191 48.1033 25.3406L49.1057 24.9761V32.5396C49.1057 33.2079 49.2373 33.6837 49.5006 33.9672C49.7638 34.2305 50.341 34.3621 51.232 34.3621ZM64.9837 26.3734C66.0975 25.0976 66.9885 24.2167 67.6567 23.7307C68.3453 23.2245 68.9325 22.9714 69.4185 22.9714C69.8843 22.9714 70.3298 23.1435 70.755 23.4877C71.2005 23.8117 71.4233 24.2066 71.4233 24.6724C71.4233 25.0976 71.2917 25.452 71.0284 25.7355C70.7652 25.9988 70.4209 26.1304 69.9956 26.1304C69.6919 26.1304 69.4388 26.0696 69.2363 25.9481C69.054 25.8266 68.8616 25.6444 68.6591 25.4014C68.4769 25.1989 68.3149 25.0571 68.1731 24.9761C68.0516 24.8749 67.8997 24.8243 67.7175 24.8243C67.4947 24.8243 67.2112 24.9458 66.867 25.1888C66.543 25.4318 65.9962 25.9583 65.2267 26.7683L64.9837 26.3734ZM61.5209 35C61.4602 35 61.4298 34.9392 61.4298 34.8177C61.4298 34.6962 61.4602 34.6355 61.5209 34.6355C62.1487 34.6355 62.5739 34.4937 62.7967 34.2102C63.0194 33.9065 63.1308 33.3496 63.1308 32.5396V26.829C63.1308 26.2013 63.0498 25.7456 62.8878 25.4621C62.7461 25.1584 62.5132 25.0065 62.1892 25.0065C61.8449 25.0065 61.3589 25.1483 60.7312 25.4318H60.6704C60.6097 25.4318 60.559 25.3811 60.5185 25.2799C60.4983 25.1786 60.5084 25.1179 60.5489 25.0976L64.7711 23.0321C64.8926 22.9916 64.9635 22.9714 64.9837 22.9714C65.2267 22.9714 65.4495 23.2346 65.652 23.7611C65.8747 24.2674 65.9861 24.9458 65.9861 25.7963V32.5396C65.9861 33.3496 66.1785 33.9065 66.5632 34.2102C66.948 34.4937 67.6567 34.6355 68.6895 34.6355C68.7705 34.6355 68.811 34.6962 68.811 34.8177C68.811 34.9392 68.7705 35 68.6895 35C67.9807 35 67.4239 34.9899 67.0189 34.9696L64.5585 34.9392L62.7663 34.9696C62.4626 34.9899 62.0474 35 61.5209 35ZM81.1795 35.1823C81.0985 35.2228 80.9972 35.243 80.8757 35.243C80.4707 35.243 80.0961 34.9899 79.7518 34.4836C79.4076 33.9571 79.2355 33.2686 79.2355 32.4181V27.2543C79.2355 25.9583 79.1241 25.0166 78.9013 24.4294C78.6988 23.8421 78.3444 23.5485 77.8382 23.5485C76.7649 23.5485 76.1574 24.3787 76.0157 26.0393C75.9549 26.6468 75.7727 27.0822 75.4689 27.3454C75.1854 27.6087 74.7804 27.7403 74.2539 27.7403C73.7476 27.7403 73.373 27.639 73.13 27.4365C72.9073 27.2138 72.7959 26.9303 72.7959 26.586C72.7959 25.9785 73.1503 25.4014 73.859 24.8546C74.5678 24.2876 75.4183 23.832 76.4105 23.4877C77.4231 23.1435 78.3141 22.9714 79.0836 22.9714C79.9746 22.9714 80.6935 23.2549 81.2402 23.8219C81.8072 24.3686 82.0907 25.209 82.0907 26.343V31.7195C82.0907 32.3067 82.192 32.7623 82.3945 33.0864C82.6172 33.4104 82.921 33.5724 83.3058 33.5724C83.5893 33.5724 83.8829 33.5015 84.1866 33.3597H84.217C84.298 33.3597 84.3486 33.4104 84.3689 33.5116C84.4094 33.5926 84.3891 33.6534 84.3081 33.6939L81.1795 35.1823ZM75.3474 35.2126C74.4766 35.2126 73.8185 35.0203 73.373 34.6355C72.9275 34.2507 72.7047 33.7141 72.7047 33.0256C72.7047 32.4788 72.8364 32.0435 73.0996 31.7195C73.3629 31.3752 73.6869 31.112 74.0716 30.9297C74.4766 30.7272 75.0335 30.5044 75.7423 30.2614L76.5017 29.9881L79.5392 28.8642L79.6607 29.3198L77.9293 30.1096C77.8686 30.1298 77.6661 30.2108 77.3218 30.3526C76.9776 30.4741 76.6738 30.6867 76.4105 30.9905C76.1675 31.2942 76.046 31.6486 76.046 32.0536C76.046 32.5396 76.1979 32.9243 76.5017 33.2079C76.8257 33.4711 77.1902 33.6027 77.5952 33.6027C77.9192 33.6027 78.2533 33.4914 78.5976 33.2686L80.1163 32.2358L80.1467 32.7218L78.0204 34.2406C77.5547 34.5849 77.1193 34.838 76.7143 35C76.3093 35.1418 75.8537 35.2126 75.3474 35.2126ZM85.4593 35C85.3986 35 85.3682 34.9392 85.3682 34.8177C85.3682 34.6962 85.3986 34.6355 85.4593 34.6355C86.0871 34.6355 86.5123 34.4937 86.7351 34.2102C86.9578 33.9065 87.0692 33.3496 87.0692 32.5396V27.1024C87.0692 26.4139 86.9983 25.9178 86.8566 25.614C86.7148 25.3103 86.482 25.1584 86.158 25.1584C85.8947 25.1584 85.5201 25.2698 85.0341 25.4925H85.0037C84.9227 25.4925 84.8619 25.4419 84.8214 25.3406C84.7809 25.2191 84.7911 25.1483 84.8518 25.128L89.4385 23.0017L89.5296 22.9714C89.6309 22.9714 89.7321 23.022 89.8334 23.1232C89.9346 23.2245 89.9853 23.3156 89.9853 23.3966V24.0649C89.9448 24.8749 89.9245 25.8671 89.9245 27.0417V32.5396C89.9245 33.3496 90.0359 33.9065 90.2586 34.2102C90.5016 34.4937 90.937 34.6355 91.5648 34.6355C91.6255 34.6355 91.6559 34.6962 91.6559 34.8177C91.6559 34.9392 91.6255 35 91.5648 35C91.0383 35 90.6231 34.9899 90.3194 34.9696L88.4969 34.9392L86.7047 34.9696C86.401 34.9899 85.9858 35 85.4593 35ZM88.3754 19.9642C87.7881 19.9642 87.3325 19.8022 87.0085 19.4782C86.6845 19.1542 86.5225 18.6986 86.5225 18.1113C86.5225 17.5848 86.6845 17.1697 87.0085 16.8659C87.3527 16.5419 87.8083 16.3799 88.3754 16.3799C88.9424 16.3799 89.3777 16.5318 89.6815 16.8355C89.9853 17.1393 90.1371 17.5645 90.1371 18.1113C90.1371 18.6986 89.9853 19.1542 89.6815 19.4782C89.3777 19.8022 88.9424 19.9642 88.3754 19.9642ZM101.61 35C101.549 35 101.519 34.9392 101.519 34.8177C101.519 34.6962 101.549 34.6355 101.61 34.6355C102.238 34.6355 102.663 34.4937 102.886 34.2102C103.108 33.9065 103.22 33.3496 103.22 32.5396V28.1655C103.22 27.072 103.017 26.262 102.612 25.7355C102.227 25.209 101.61 24.9458 100.759 24.9458C100.131 24.9458 99.4936 25.1078 98.8456 25.4318C98.2178 25.7355 97.7217 26.1405 97.3572 26.6468L97.2053 26.2823C97.9343 25.2293 98.7444 24.4091 99.6354 23.8219C100.547 23.2144 101.509 22.9106 102.521 22.9106C103.615 22.9106 104.475 23.265 105.103 23.9737C105.751 24.6622 106.075 25.5735 106.075 26.7075V32.5396C106.075 33.3496 106.186 33.9065 106.409 34.2102C106.652 34.4937 107.087 34.6355 107.715 34.6355C107.776 34.6355 107.806 34.6962 107.806 34.8177C107.806 34.9392 107.776 35 107.715 35C107.189 35 106.774 34.9899 106.47 34.9696L104.647 34.9392L102.886 34.9696C102.562 34.9899 102.136 35 101.61 35ZM93.4388 35C93.378 35 93.3477 34.9392 93.3477 34.8177C93.3477 34.6962 93.378 34.6355 93.4388 34.6355C94.0665 34.6355 94.4918 34.4937 94.7146 34.2102C94.9373 33.9065 95.0487 33.3496 95.0487 32.5396V26.829C95.0487 26.2013 94.9677 25.7456 94.8057 25.4621C94.6639 25.1584 94.431 25.0065 94.107 25.0065C93.7628 25.0065 93.2768 25.1483 92.649 25.4318H92.5883C92.5275 25.4318 92.4769 25.3811 92.4364 25.2799C92.4161 25.1786 92.4263 25.1179 92.4668 25.0976L96.689 23.0321C96.8105 22.9916 96.8813 22.9714 96.9016 22.9714C97.1446 22.9714 97.3673 23.2346 97.5698 23.7611C97.7926 24.2674 97.904 24.9458 97.904 25.7963V32.5396C97.904 33.3496 98.0153 33.9065 98.2381 34.2102C98.4811 34.4937 98.9165 34.6355 99.5442 34.6355C99.605 34.6355 99.6354 34.6962 99.6354 34.8177C99.6354 34.9392 99.605 35 99.5442 35C99.0177 35 98.6026 34.9899 98.2988 34.9696L96.4763 34.9392L94.6842 34.9696C94.3804 34.9899 93.9653 35 93.4388 35ZM117.872 24.2775C119.229 24.2775 120.423 24.5002 121.456 24.9458C122.509 25.3913 123.319 26.0089 123.886 26.7986C124.453 27.5884 124.737 28.4895 124.737 29.5021C124.737 30.5551 124.433 31.5068 123.825 32.3573C123.218 33.2079 122.377 33.8862 121.304 34.3925C120.231 34.8785 119.036 35.1215 117.72 35.1215C117.153 35.1215 116.505 35.0911 115.776 35.0304C115.492 35.0101 115.138 34.9899 114.713 34.9696C114.308 34.9494 113.852 34.9392 113.346 34.9392L111.128 34.9696C110.723 34.9899 110.177 35 109.488 35C109.427 35 109.397 34.9392 109.397 34.8177C109.397 34.6962 109.427 34.6355 109.488 34.6355C110.075 34.6355 110.521 34.5849 110.825 34.4836C111.128 34.3621 111.341 34.1596 111.463 33.8761C111.604 33.5724 111.675 33.1269 111.675 32.5396V18.4758C111.675 17.6253 111.533 17.0684 111.25 16.8052C110.966 16.5216 110.389 16.3799 109.519 16.3799C109.478 16.3799 109.458 16.3191 109.458 16.1976C109.458 16.0761 109.478 16.0154 109.519 16.0154L111.128 16.0458C112.06 16.0863 112.799 16.1065 113.346 16.1065C113.913 16.1065 114.5 16.0761 115.108 16.0154C115.31 15.9951 115.614 15.9749 116.019 15.9546C116.424 15.9344 116.778 15.9243 117.082 15.9243C118.925 15.9243 120.352 16.2584 121.365 16.9267C122.377 17.5949 122.884 18.5669 122.884 19.8427C122.884 21.0172 122.418 22.0601 121.486 22.9714C120.575 23.8624 119.259 24.48 117.538 24.8243L117.872 24.2775ZM116.626 16.5925C116.039 16.5925 115.634 16.7343 115.411 17.0178C115.189 17.281 115.077 17.7873 115.077 18.5365V24.4901L113.953 24.2775C114.844 24.318 115.624 24.3382 116.292 24.3382C117.345 24.3382 118.155 23.9434 118.722 23.1536C119.289 22.3638 119.573 21.3513 119.573 20.1161C119.573 18.9618 119.32 18.091 118.813 17.5038C118.307 16.8963 117.578 16.5925 116.626 16.5925ZM117.203 34.3621C119.856 34.3621 121.183 32.9851 121.183 30.2311C121.183 28.6718 120.808 27.4365 120.059 26.5253C119.31 25.614 118.175 25.1584 116.657 25.1584C115.664 25.1584 114.804 25.2191 114.075 25.3406L115.077 24.9761V32.5396C115.077 33.2079 115.209 33.6837 115.472 33.9672C115.735 34.2305 116.312 34.3621 117.203 34.3621ZM132.14 35.3645C131.026 35.3645 130.145 35.0203 129.497 34.3317C128.869 33.623 128.556 32.7016 128.556 31.5676V27.1024C128.556 25.7861 128.242 25.128 127.614 25.128C127.391 25.128 127.138 25.1989 126.855 25.3406H126.824C126.743 25.3406 126.682 25.29 126.642 25.1888C126.601 25.0673 126.612 24.9964 126.672 24.9761L130.743 23.0321L130.894 23.0017C130.996 23.0017 131.097 23.0524 131.198 23.1536C131.32 23.2346 131.38 23.3156 131.38 23.3966V30.1096C131.38 32.2966 132.221 33.3901 133.902 33.3901C134.469 33.3901 135.046 33.2281 135.633 32.9041C136.241 32.5801 136.716 32.1548 137.061 31.6283L137.243 31.9928C136.514 33.0459 135.724 33.8761 134.874 34.4836C134.023 35.0709 133.112 35.3645 132.14 35.3645ZM139.308 31.4765C139.308 32.165 139.369 32.651 139.491 32.9345C139.632 33.218 139.855 33.3597 140.159 33.3597C140.442 33.3597 140.858 33.2484 141.404 33.0256H141.465C141.526 33.0256 141.576 33.0762 141.617 33.1775C141.678 33.2787 141.678 33.3395 141.617 33.3597L137.425 35.3949C137.385 35.4151 137.334 35.4253 137.273 35.4253C137.051 35.4253 136.858 35.162 136.696 34.6355C136.554 34.109 136.484 33.4002 136.484 32.5092V27.1024C136.484 25.7861 136.17 25.128 135.542 25.128C135.319 25.128 135.056 25.1989 134.752 25.3406H134.722C134.661 25.3406 134.61 25.29 134.57 25.1888C134.529 25.0673 134.54 24.9964 134.6 24.9761L138.671 23.0321C138.711 23.0119 138.762 23.0017 138.822 23.0017C138.924 23.0017 139.025 23.0524 139.126 23.1536C139.248 23.2346 139.308 23.3156 139.308 23.3966V31.4765ZM149.42 23.9434C149.501 23.8016 149.45 23.7307 149.268 23.7307C147.607 23.7307 146.23 24.0041 145.137 24.5509C144.043 25.0774 143.314 25.8773 142.95 26.9505C142.95 26.9708 142.909 26.9809 142.828 26.9809C142.666 26.9809 142.596 26.9404 142.616 26.8594L143.892 22.0905C143.892 22.0702 143.932 22.0601 144.013 22.0601C144.175 22.0601 144.246 22.1006 144.226 22.1816C144.185 22.3436 144.165 22.4651 144.165 22.5461C144.165 22.8296 144.286 23.022 144.529 23.1232C144.772 23.2245 145.177 23.2751 145.744 23.2751H152.731C152.812 23.2751 152.883 23.3156 152.943 23.3966C153.004 23.4776 153.014 23.5586 152.974 23.6396L146.048 34.2406C145.987 34.3824 146.038 34.4532 146.2 34.4532C148.185 34.4532 149.714 34.1697 150.787 33.6027C151.86 33.0357 152.528 32.165 152.792 30.9905C152.812 30.9297 152.873 30.8993 152.974 30.8993C153.095 30.8993 153.156 30.9297 153.156 30.9905L153.095 34.6659C153.095 34.7469 153.065 34.8279 153.004 34.9089C152.943 34.9696 152.873 35 152.792 35H142.859C142.778 35 142.707 34.9595 142.646 34.8785C142.606 34.7975 142.606 34.7165 142.646 34.6355L149.42 23.9434ZM161.73 23.9434C161.811 23.8016 161.761 23.7307 161.578 23.7307C159.918 23.7307 158.541 24.0041 157.447 24.5509C156.354 25.0774 155.625 25.8773 155.26 26.9505C155.26 26.9708 155.22 26.9809 155.139 26.9809C154.977 26.9809 154.906 26.9404 154.926 26.8594L156.202 22.0905C156.202 22.0702 156.242 22.0601 156.323 22.0601C156.485 22.0601 156.556 22.1006 156.536 22.1816C156.496 22.3436 156.475 22.4651 156.475 22.5461C156.475 22.8296 156.597 23.022 156.84 23.1232C157.083 23.2245 157.488 23.2751 158.055 23.2751H165.041C165.122 23.2751 165.193 23.3156 165.254 23.3966C165.315 23.4776 165.325 23.5586 165.284 23.6396L158.359 34.2406C158.298 34.3824 158.348 34.4532 158.51 34.4532C160.495 34.4532 162.024 34.1697 163.097 33.6027C164.17 33.0357 164.839 32.165 165.102 30.9905C165.122 30.9297 165.183 30.8993 165.284 30.8993C165.406 30.8993 165.466 30.9297 165.466 30.9905L165.406 34.6659C165.406 34.7469 165.375 34.8279 165.315 34.9089C165.254 34.9696 165.183 35 165.102 35H155.169C155.088 35 155.017 34.9595 154.957 34.8785C154.916 34.7975 154.916 34.7165 154.957 34.6355L161.73 23.9434ZM173.403 35.3645C172.127 35.3645 171.023 35.1013 170.092 34.5747C169.16 34.028 168.451 33.3091 167.965 32.4181C167.479 31.5068 167.236 30.5247 167.236 29.4717C167.236 28.2972 167.53 27.2138 168.117 26.2215C168.705 25.2293 169.515 24.4496 170.547 23.8826C171.6 23.2954 172.785 23.0017 174.101 23.0017C175.357 23.0017 176.329 23.2852 177.017 23.8522C177.706 24.4192 178.05 25.3001 178.05 26.4949C178.05 27.1227 177.939 27.4365 177.716 27.4365H174.8C174.84 26.2013 174.719 25.2596 174.435 24.6116C174.152 23.9434 173.656 23.6092 172.947 23.6092C172.137 23.6092 171.489 24.0244 171.003 24.8546C170.537 25.6849 170.304 26.7885 170.304 28.1655C170.304 29.9476 170.709 31.3448 171.519 32.3573C172.35 33.3699 173.534 33.8761 175.073 33.8761C175.62 33.8761 176.086 33.8154 176.471 33.6939C176.855 33.5521 177.362 33.3294 177.989 33.0256L178.05 32.9952C178.091 32.9952 178.131 33.0357 178.172 33.1167C178.232 33.1977 178.242 33.2585 178.202 33.299C177.453 34.028 176.693 34.5545 175.924 34.8785C175.154 35.2025 174.314 35.3645 173.403 35.3645ZM169.211 26.8898L175.863 26.7683V27.4365L169.241 27.4669L169.211 26.8898ZM183.608 26.3734C184.722 25.0976 185.613 24.2167 186.281 23.7307C186.969 23.2245 187.557 22.9714 188.043 22.9714C188.508 22.9714 188.954 23.1435 189.379 23.4877C189.825 23.8117 190.047 24.2066 190.047 24.6724C190.047 25.0976 189.916 25.452 189.653 25.7355C189.389 25.9988 189.045 26.1304 188.62 26.1304C188.316 26.1304 188.063 26.0696 187.86 25.9481C187.678 25.8266 187.486 25.6444 187.283 25.4014C187.101 25.1989 186.939 25.0571 186.797 24.9761C186.676 24.8749 186.524 24.8243 186.342 24.8243C186.119 24.8243 185.835 24.9458 185.491 25.1888C185.167 25.4318 184.62 25.9583 183.851 26.7683L183.608 26.3734ZM180.145 35C180.084 35 180.054 34.9392 180.054 34.8177C180.054 34.6962 180.084 34.6355 180.145 34.6355C180.773 34.6355 181.198 34.4937 181.421 34.2102C181.644 33.9065 181.755 33.3496 181.755 32.5396V26.829C181.755 26.2013 181.674 25.7456 181.512 25.4621C181.37 25.1584 181.137 25.0065 180.813 25.0065C180.469 25.0065 179.983 25.1483 179.355 25.4318H179.295C179.234 25.4318 179.183 25.3811 179.143 25.2799C179.122 25.1786 179.133 25.1179 179.173 25.0976L183.395 23.0321C183.517 22.9916 183.588 22.9714 183.608 22.9714C183.851 22.9714 184.074 23.2346 184.276 23.7611C184.499 24.2674 184.61 24.9458 184.61 25.7963V32.5396C184.61 33.3496 184.803 33.9065 185.187 34.2102C185.572 34.4937 186.281 34.6355 187.314 34.6355C187.395 34.6355 187.435 34.6962 187.435 34.8177C187.435 34.9392 187.395 35 187.314 35C186.605 35 186.048 34.9899 185.643 34.9696L183.183 34.9392L181.39 34.9696C181.087 34.9899 180.672 35 180.145 35Z" fill="#0000FF"/>
</svg>
