<svg width="30" height="31" viewBox="0 0 30 31" fill="none" xmlns="http://www.w3.org/2000/svg">
<g clip-path="url(#clip0_31_539)">
<path d="M10.4508 1.48672C7.45335 2.52657 4.86834 4.50023 3.07548 7.11782C1.28262 9.7354 0.376419 12.8589 0.489976 16.0296C0.603533 19.2003 1.73087 22.251 3.70638 24.7336C5.6819 27.2162 8.40148 28.9999 11.4657 29.8227C13.9499 30.4637 16.5526 30.4918 19.05 29.9047C21.3125 29.3965 23.4042 28.3094 25.1203 26.75C26.9065 25.0774 28.2029 22.9496 28.8703 20.5953C29.5958 18.0352 29.7249 15.3428 29.2477 12.725H15.2977V18.5117H23.3766C23.2151 19.4347 22.8691 20.3155 22.3593 21.1016C21.8495 21.8877 21.1863 22.5629 20.4094 23.0867C19.4229 23.7393 18.3108 24.1784 17.1446 24.3758C15.9749 24.5933 14.7752 24.5933 13.6055 24.3758C12.42 24.1307 11.2985 23.6414 10.3125 22.9391C8.72851 21.8178 7.53912 20.2248 6.9141 18.3875C6.2785 16.5158 6.2785 14.4866 6.9141 12.6148C7.359 11.3029 8.09449 10.1083 9.06566 9.12031C10.177 7.96894 11.5841 7.14593 13.1324 6.74159C14.6808 6.33724 16.3106 6.36718 17.843 6.82813C19.0401 7.19561 20.1348 7.83767 21.0399 8.70312C21.9508 7.79688 22.8602 6.88828 23.768 5.97734C24.2368 5.4875 24.7477 5.02109 25.2094 4.51953C23.8279 3.23393 22.2063 2.23357 20.4375 1.57578C17.2165 0.406227 13.6922 0.374796 10.4508 1.48672Z" fill="white"/>
<path d="M10.4509 1.48672C13.692 0.374039 17.2163 0.404643 20.4376 1.57344C22.2067 2.2357 23.8276 3.24087 25.2071 4.53125C24.7384 5.03281 24.2438 5.50156 23.7657 5.98906C22.8563 6.89687 21.9478 7.80156 21.0399 8.70312C20.1349 7.83767 19.0402 7.1956 17.8431 6.82812C16.3111 6.36556 14.6814 6.33389 13.1326 6.73658C11.5839 7.13927 10.176 7.96077 9.06338 9.11094C8.09221 10.0989 7.35672 11.2935 6.91182 12.6055L2.05322 8.84375C3.7923 5.39507 6.80342 2.75709 10.4509 1.48672Z" fill="#E33629"/>
<path d="M0.764007 12.5703C1.02515 11.2761 1.4587 10.0227 2.05307 8.84375L6.91166 12.6148C6.27607 14.4866 6.27607 16.5158 6.91166 18.3875C5.29291 19.6375 3.67338 20.8938 2.05307 22.1563C0.565141 19.1945 0.111349 15.8199 0.764007 12.5703Z" fill="#F8BD00"/>
<path d="M15.2977 12.7227H29.2477C29.7249 15.3405 29.5958 18.0328 28.8703 20.593C28.2029 22.9472 26.9065 25.075 25.1203 26.7477C23.5524 25.5242 21.9774 24.3102 20.4094 23.0867C21.1868 22.5624 21.8503 21.8865 22.3601 21.0995C22.87 20.3126 23.2157 19.4308 23.3766 18.507H15.2977C15.2953 16.5805 15.2977 14.6516 15.2977 12.7227Z" fill="#587DBD"/>
<path d="M2.05078 22.1563C3.67109 20.9063 5.29062 19.65 6.90937 18.3875C7.53564 20.2255 8.72673 21.8185 10.3125 22.9391C11.3016 23.6381 12.4255 24.1234 13.6125 24.3641C14.7822 24.5816 15.9819 24.5816 17.1516 24.3641C18.3178 24.1667 19.4299 23.7276 20.4164 23.075C21.9844 24.2984 23.5594 25.5125 25.1273 26.7359C23.4115 28.2962 21.3197 29.3841 19.057 29.893C16.5596 30.4801 13.9569 30.4519 11.4727 29.8109C9.50789 29.2863 7.67268 28.3616 6.08203 27.0945C4.39842 25.7579 3.02333 24.0734 2.05078 22.1563Z" fill="#319F43"/>
</g>
<defs>
<clipPath id="clip0_31_539">
<rect width="30" height="30" fill="white" transform="translate(0 0.5)"/>
</clipPath>
</defs>
</svg>
