<svg width="20" height="20" viewBox="0 0 20 20" fill="none" xmlns="http://www.w3.org/2000/svg">
<path d="M7.36842 4.10992e-08C7.55714 -5.26894e-05 7.7424 0.0506357 7.90481 0.146758C8.06722 0.242881 8.20081 0.380903 8.29158 0.546373L8.34526 0.662175L10.4505 5.92589C10.5353 6.13766 10.549 6.37124 10.4896 6.59148C10.4302 6.81172 10.3008 7.0067 10.1211 7.14707L10.0158 7.21865L8.25368 8.27561L8.32 8.38404C9.15869 9.71575 10.2853 10.8424 11.6168 11.6812L11.7242 11.7465L12.7821 9.98631C12.8993 9.79059 13.077 9.63826 13.2883 9.55225C13.4996 9.46624 13.7331 9.45121 13.9537 9.50942L14.0747 9.55048L19.3379 11.656C19.5131 11.7259 19.6664 11.8416 19.7816 11.9911C19.8967 12.1406 19.9696 12.3182 19.9926 12.5055L20 12.6329V16.8439C20 18.5883 18.5863 20.0021 16.7789 20C7.74842 19.4515 0.549474 12.2518 4.90573e-09 3.15823C-4.4865e-05 2.35266 0.307711 1.57752 0.860299 0.991409C1.41289 0.405299 2.16853 0.052524 2.97263 0.00526387L3.15789 4.10992e-08H7.36842Z" fill="white" fill-opacity="0.8"/>
</svg>
